<svg width="1712" height="271" viewBox="0 0 1712 271" fill="none" xmlns="http://www.w3.org/2000/svg">
<mask id="mask0_98_995" style="mask-type:alpha" maskUnits="userSpaceOnUse" x="0" y="0" width="264" height="271">
<path d="M263.106 150.846V103.559L181.255 68.3071L154.365 78.6494L235.185 113.785V114.911L177.082 138.06V188.86L263.106 150.846Z" fill="#102077"/>
<path d="M0 68.6134L130.137 11.1074L151.369 25.7965L146.086 52.7085L142.68 54.0806L55.8423 89.0641V91.3253L172.048 138.14V187.802L0 111.776V68.6134Z" fill="#13A20E"/>
<path d="M156.822 23.581L151.536 50.5127L149.716 59.781L159.587 47.2689L172.048 31.4744L186.937 12.6025L172.048 9.67977L145.265 4.42213L122.738 4.15806e-06L135.419 8.77307L156.822 23.581Z" fill="#1E3AD9"/>
<path d="M122.418 270.462V91.1377L147.15 81.6406L171.882 91.1377V230.292H257.019V270.462H122.418Z" fill="#1E3AD9"/>
</mask>
<g mask="url(#mask0_98_995)">
<rect x="189.543" y="344.351" width="329.016" height="236.074" transform="rotate(-135 189.543 344.351)" fill="url(#paint0_linear_98_995)"/>
</g>
<path d="M385.731 213C375.331 213 365.665 211.2 356.731 207.6C347.931 203.867 340.198 198.733 333.531 192.2C326.865 185.667 321.731 178.067 318.131 169.4C314.531 160.6 312.731 151.067 312.731 140.8C312.731 130.667 314.598 121.267 318.331 112.6C322.065 103.933 327.198 96.3333 333.731 89.8C340.398 83.2667 348.198 78.2 357.131 74.6C366.198 71 375.931 69.2 386.331 69.2C393.531 69.2 400.531 70.2 407.331 72.2C414.131 74.2 420.265 77 425.731 80.6C431.331 84.2 435.931 88.2667 439.531 92.8L423.131 109.8C417.531 104.467 411.665 100.4 405.531 97.6C399.398 94.8 392.931 93.4 386.131 93.4C379.465 93.4 373.265 94.6 367.531 97C361.931 99.4 356.931 102.733 352.531 107C348.265 111.267 344.931 116.267 342.531 122C340.265 127.733 339.131 134 339.131 140.8C339.131 147.467 340.331 153.733 342.731 159.6C345.265 165.333 348.731 170.4 353.131 174.8C357.665 179.2 362.798 182.667 368.531 185.2C374.398 187.6 380.598 188.8 387.131 188.8C392.065 188.8 396.665 188.133 400.931 186.8C405.198 185.333 408.998 183.333 412.331 180.8C415.665 178.133 418.198 175.067 419.931 171.6C421.798 168.133 422.731 164.467 422.731 160.6V156.2L426.331 160.2H384.931V137H448.331C448.598 138.467 448.798 140.133 448.931 142C449.065 143.733 449.131 145.4 449.131 147C449.265 148.6 449.331 150 449.331 151.2C449.331 160.4 447.665 168.8 444.331 176.4C441.131 183.867 436.665 190.333 430.931 195.8C425.198 201.267 418.465 205.533 410.731 208.6C403.131 211.533 394.798 213 385.731 213ZM512.228 213C501.695 213 492.295 210.667 484.028 206C475.761 201.2 469.228 194.667 464.428 186.4C459.761 178.133 457.428 168.733 457.428 158.2C457.428 147.667 459.761 138.267 464.428 130C469.228 121.733 475.761 115.267 484.028 110.6C492.295 105.8 501.695 103.4 512.228 103.4C522.628 103.4 531.961 105.8 540.228 110.6C548.495 115.267 554.961 121.733 559.628 130C564.428 138.267 566.828 147.667 566.828 158.2C566.828 168.733 564.428 178.133 559.628 186.4C554.961 194.667 548.495 201.2 540.228 206C531.961 210.667 522.628 213 512.228 213ZM512.228 191.2C517.961 191.2 523.095 189.8 527.628 187C532.161 184.067 535.695 180.133 538.228 175.2C540.895 170.133 542.161 164.467 542.028 158.2C542.161 151.8 540.895 146.133 538.228 141.2C535.695 136.133 532.161 132.2 527.628 129.4C523.095 126.6 517.961 125.2 512.228 125.2C506.495 125.2 501.295 126.667 496.628 129.6C492.095 132.4 488.561 136.333 486.028 141.4C483.495 146.333 482.228 151.933 482.228 158.2C482.228 164.467 483.495 170.133 486.028 175.2C488.561 180.133 492.095 184.067 496.628 187C501.295 189.8 506.495 191.2 512.228 191.2ZM581.038 211V63H605.438V211H581.038ZM629.348 211V105.6H653.748V211H629.348ZM641.348 83.2C636.415 83.2 632.548 82 629.748 79.6C627.082 77.0667 625.748 73.5333 625.748 69C625.748 64.7333 627.148 61.3333 629.948 58.8C632.748 56.1333 636.548 54.8 641.348 54.8C646.282 54.8 650.082 56.0667 652.748 58.6C655.548 61 656.948 64.4667 656.948 69C656.948 73.1333 655.548 76.5333 652.748 79.2C649.948 81.8667 646.148 83.2 641.348 83.2ZM722.147 213C712.28 213 703.414 210.6 695.547 205.8C687.68 201 681.48 194.467 676.947 186.2C672.414 177.933 670.147 168.6 670.147 158.2C670.147 147.8 672.414 138.467 676.947 130.2C681.48 121.933 687.68 115.4 695.547 110.6C703.414 105.8 712.28 103.4 722.147 103.4C731.48 103.4 740.014 105.267 747.747 109C755.614 112.6 761.614 117.533 765.747 123.8L752.347 140.2C750.347 137.4 747.814 134.867 744.747 132.6C741.68 130.333 738.347 128.533 734.747 127.2C731.28 125.867 727.88 125.2 724.547 125.2C718.547 125.2 713.214 126.667 708.547 129.6C704.014 132.4 700.414 136.333 697.747 141.4C695.08 146.333 693.747 151.933 693.747 158.2C693.747 164.467 695.08 170.067 697.747 175C700.547 179.933 704.28 183.867 708.947 186.8C713.614 189.733 718.814 191.2 724.547 191.2C728.147 191.2 731.547 190.667 734.747 189.6C737.947 188.4 741.014 186.733 743.947 184.6C747.014 182.467 749.814 179.8 752.347 176.6L765.747 193C761.347 198.867 755.147 203.667 747.147 207.4C739.147 211.133 730.814 213 722.147 213ZM779.364 211V105.6H803.764V211H779.364ZM791.364 83.2C786.431 83.2 782.564 82 779.764 79.6C777.097 77.0667 775.764 73.5333 775.764 69C775.764 64.7333 777.164 61.3333 779.964 58.8C782.764 56.1333 786.564 54.8 791.364 54.8C796.297 54.8 800.097 56.0667 802.764 58.6C805.564 61 806.964 64.4667 806.964 69C806.964 73.1333 805.564 76.5333 802.764 79.2C799.964 81.8667 796.164 83.2 791.364 83.2ZM838.563 211V78.8H862.963V211H838.563ZM817.763 128.4V105.6H885.963V128.4H817.763ZM996.091 213C983.824 213 973.157 210.667 964.091 206C955.157 201.333 947.491 194.533 941.091 185.6L957.891 166.4C964.424 175.6 970.757 181.933 976.891 185.4C983.157 188.733 990.224 190.4 998.091 190.4C1002.62 190.4 1006.76 189.733 1010.49 188.4C1014.22 187.067 1017.16 185.2 1019.29 182.8C1021.42 180.267 1022.49 177.333 1022.49 174C1022.49 171.733 1022.02 169.667 1021.09 167.8C1020.29 165.8 1019.02 164.067 1017.29 162.6C1015.69 161 1013.62 159.533 1011.09 158.2C1008.69 156.867 1005.82 155.733 1002.49 154.8C999.291 153.733 995.757 152.867 991.891 152.2C984.424 150.733 977.957 148.8 972.491 146.4C967.157 143.867 962.624 140.8 958.891 137.2C955.291 133.467 952.557 129.333 950.691 124.8C948.957 120.133 948.091 114.867 948.091 109C948.091 101.133 950.291 94.2 954.691 88.2C959.224 82.0667 965.224 77.2667 972.691 73.8C980.291 70.3333 988.624 68.6 997.691 68.6C1009.42 68.6 1019.36 70.7333 1027.49 75C1035.76 79.2667 1042.22 85.3333 1046.89 93.2L1029.69 110C1025.69 103.867 1020.96 99.2 1015.49 96C1010.02 92.8 1004.09 91.2 997.691 91.2C992.891 91.2 988.691 91.9333 985.091 93.4C981.624 94.7333 978.891 96.6667 976.891 99.2C974.891 101.6 973.891 104.533 973.891 108C973.891 110.533 974.424 112.867 975.491 115C976.691 117.133 978.424 119 980.691 120.6C982.957 122.2 985.824 123.6 989.291 124.8C992.757 126 996.757 127.067 1001.29 128C1008.62 129.6 1015.16 131.6 1020.89 134C1026.76 136.4 1031.69 139.333 1035.69 142.8C1039.82 146.133 1042.96 150 1045.09 154.4C1047.22 158.667 1048.29 163.467 1048.29 168.8C1048.29 177.867 1046.16 185.733 1041.89 192.4C1037.62 199.067 1031.56 204.2 1023.69 207.8C1015.82 211.267 1006.62 213 996.091 213ZM1114.28 213C1103.21 213 1093.41 210.733 1084.88 206.2C1076.48 201.533 1069.88 195.2 1065.08 187.2C1060.41 179.067 1058.08 169.733 1058.08 159.2C1058.08 150.933 1059.41 143.4 1062.08 136.6C1064.74 129.8 1068.48 123.933 1073.28 119C1078.08 113.933 1083.74 110.067 1090.28 107.4C1096.94 104.6 1104.14 103.2 1111.88 103.2C1118.94 103.2 1125.41 104.533 1131.28 107.2C1137.28 109.867 1142.48 113.533 1146.88 118.2C1151.28 122.733 1154.61 128.2 1156.88 134.6C1159.28 140.867 1160.41 147.733 1160.28 155.2L1160.08 164H1074.88L1070.08 147H1139.48L1136.48 150.4V145.8C1136.08 141.8 1134.74 138.267 1132.48 135.2C1130.21 132 1127.28 129.533 1123.68 127.8C1120.21 125.933 1116.34 125 1112.08 125C1105.54 125 1100.01 126.267 1095.48 128.8C1090.94 131.2 1087.48 134.8 1085.08 139.6C1082.81 144.4 1081.68 150.333 1081.68 157.4C1081.68 164.2 1083.08 170.133 1085.88 175.2C1088.81 180.267 1092.94 184.2 1098.28 187C1103.61 189.8 1109.81 191.2 1116.88 191.2C1121.81 191.2 1126.34 190.4 1130.48 188.8C1134.74 187.2 1139.28 184.333 1144.08 180.2L1156.08 197C1152.48 200.333 1148.34 203.2 1143.68 205.6C1139.14 207.867 1134.34 209.667 1129.28 211C1124.21 212.333 1119.21 213 1114.28 213ZM1174.06 211V105.6H1198.06L1198.46 139.2L1195.26 131.6C1196.73 126.267 1199.26 121.467 1202.86 117.2C1206.46 112.933 1210.6 109.6 1215.26 107.2C1220.06 104.667 1225 103.4 1230.06 103.4C1232.33 103.4 1234.46 103.6 1236.46 104C1238.6 104.4 1240.33 104.867 1241.66 105.4L1235.26 132.2C1233.66 131.4 1231.8 130.8 1229.66 130.4C1227.66 129.867 1225.6 129.6 1223.46 129.6C1220 129.6 1216.73 130.267 1213.66 131.6C1210.73 132.8 1208.13 134.533 1205.86 136.8C1203.73 139.067 1202 141.733 1200.66 144.8C1199.33 147.733 1198.66 151 1198.66 154.6V211H1174.06ZM1294 211L1249.6 105.6H1276.2L1306.4 184.2L1301.2 185.8L1333 105.6H1359L1312.2 211H1294ZM1371.8 211V105.6H1396.2V211H1371.8ZM1383.8 83.2C1378.87 83.2 1375 82 1372.2 79.6C1369.53 77.0667 1368.2 73.5333 1368.2 69C1368.2 64.7333 1369.6 61.3333 1372.4 58.8C1375.2 56.1333 1379 54.8 1383.8 54.8C1388.73 54.8 1392.53 56.0667 1395.2 58.6C1398 61 1399.4 64.4667 1399.4 69C1399.4 73.1333 1398 76.5333 1395.2 79.2C1392.4 81.8667 1388.6 83.2 1383.8 83.2ZM1464.6 213C1454.73 213 1445.87 210.6 1438 205.8C1430.13 201 1423.93 194.467 1419.4 186.2C1414.87 177.933 1412.6 168.6 1412.6 158.2C1412.6 147.8 1414.87 138.467 1419.4 130.2C1423.93 121.933 1430.13 115.4 1438 110.6C1445.87 105.8 1454.73 103.4 1464.6 103.4C1473.93 103.4 1482.47 105.267 1490.2 109C1498.07 112.6 1504.07 117.533 1508.2 123.8L1494.8 140.2C1492.8 137.4 1490.27 134.867 1487.2 132.6C1484.13 130.333 1480.8 128.533 1477.2 127.2C1473.73 125.867 1470.33 125.2 1467 125.2C1461 125.2 1455.67 126.667 1451 129.6C1446.47 132.4 1442.87 136.333 1440.2 141.4C1437.53 146.333 1436.2 151.933 1436.2 158.2C1436.2 164.467 1437.53 170.067 1440.2 175C1443 179.933 1446.73 183.867 1451.4 186.8C1456.07 189.733 1461.27 191.2 1467 191.2C1470.6 191.2 1474 190.667 1477.2 189.6C1480.4 188.4 1483.47 186.733 1486.4 184.6C1489.47 182.467 1492.27 179.8 1494.8 176.6L1508.2 193C1503.8 198.867 1497.6 203.667 1489.6 207.4C1481.6 211.133 1473.27 213 1464.6 213ZM1568.42 213C1557.35 213 1547.55 210.733 1539.02 206.2C1530.62 201.533 1524.02 195.2 1519.22 187.2C1514.55 179.067 1512.22 169.733 1512.22 159.2C1512.22 150.933 1513.55 143.4 1516.22 136.6C1518.88 129.8 1522.62 123.933 1527.42 119C1532.22 113.933 1537.88 110.067 1544.42 107.4C1551.08 104.6 1558.28 103.2 1566.02 103.2C1573.08 103.2 1579.55 104.533 1585.42 107.2C1591.42 109.867 1596.62 113.533 1601.02 118.2C1605.42 122.733 1608.75 128.2 1611.02 134.6C1613.42 140.867 1614.55 147.733 1614.42 155.2L1614.22 164H1529.02L1524.22 147H1593.62L1590.62 150.4V145.8C1590.22 141.8 1588.88 138.267 1586.62 135.2C1584.35 132 1581.42 129.533 1577.82 127.8C1574.35 125.933 1570.48 125 1566.22 125C1559.68 125 1554.15 126.267 1549.62 128.8C1545.08 131.2 1541.62 134.8 1539.22 139.6C1536.95 144.4 1535.82 150.333 1535.82 157.4C1535.82 164.2 1537.22 170.133 1540.02 175.2C1542.95 180.267 1547.08 184.2 1552.42 187C1557.75 189.8 1563.95 191.2 1571.02 191.2C1575.95 191.2 1580.48 190.4 1584.62 188.8C1588.88 187.2 1593.42 184.333 1598.22 180.2L1610.22 197C1606.62 200.333 1602.48 203.2 1597.82 205.6C1593.28 207.867 1588.48 209.667 1583.42 211C1578.35 212.333 1573.35 213 1568.42 213ZM1663.4 213C1654.2 213 1645.87 211.467 1638.4 208.4C1631.07 205.2 1625.07 200.667 1620.4 194.8L1636.2 181.2C1640.2 185.6 1644.67 188.867 1649.6 191C1654.54 193 1659.74 194 1665.2 194C1667.47 194 1669.47 193.733 1671.2 193.2C1673.07 192.667 1674.67 191.867 1676 190.8C1677.34 189.733 1678.34 188.467 1679 187C1679.8 185.533 1680.2 183.933 1680.2 182.2C1680.2 179 1679 176.467 1676.6 174.6C1675.27 173.8 1673.2 172.867 1670.4 171.8C1667.6 170.6 1663.94 169.467 1659.4 168.4C1652.2 166.533 1646.14 164.4 1641.2 162C1636.4 159.467 1632.67 156.667 1630 153.6C1627.74 150.933 1626.07 148.067 1625 145C1623.94 141.8 1623.4 138.267 1623.4 134.4C1623.4 128.4 1625.14 123.067 1628.6 118.4C1632.2 113.733 1636.94 110.067 1642.8 107.4C1648.67 104.733 1655.2 103.4 1662.4 103.4C1667.74 103.4 1672.87 104.067 1677.8 105.4C1682.87 106.733 1687.54 108.667 1691.8 111.2C1696.07 113.6 1699.74 116.533 1702.8 120L1689.2 135C1686.8 132.6 1684.07 130.467 1681 128.6C1678.07 126.6 1675.07 125.067 1672 124C1668.94 122.933 1666.07 122.4 1663.4 122.4C1660.87 122.4 1658.6 122.667 1656.6 123.2C1654.6 123.6 1652.94 124.267 1651.6 125.2C1650.27 126.133 1649.2 127.333 1648.4 128.8C1647.74 130.133 1647.4 131.667 1647.4 133.4C1647.54 135.133 1647.94 136.733 1648.6 138.2C1649.4 139.533 1650.47 140.667 1651.8 141.6C1653.14 142.533 1655.27 143.6 1658.2 144.8C1661.14 146 1664.94 147.133 1669.6 148.2C1676.14 149.933 1681.6 151.867 1686 154C1690.4 156.133 1693.87 158.6 1696.4 161.4C1698.94 163.8 1700.74 166.6 1701.8 169.8C1702.87 173 1703.4 176.6 1703.4 180.6C1703.4 186.867 1701.6 192.467 1698 197.4C1694.54 202.2 1689.8 206 1683.8 208.8C1677.8 211.6 1671 213 1663.4 213Z" fill="#764BA2"/>
<defs>
<linearGradient id="paint0_linear_98_995" x1="189.543" y1="462.388" x2="576.35" y2="462.388" gradientUnits="userSpaceOnUse">
<stop stop-color="#667EEA"/>
<stop offset="0.97" stop-color="#764BA2"/>
</linearGradient>
</defs>
</svg>
